# xmcd CD database file
#
# Track frame offsets:
#	150
#	15820
#	53942
#	94741
#	133896
#	160148
#
# Disc length: 2543 seconds
#
# Revision: 0
# Processed by: cddbd v1.5.2PL0 Copyright (c) Steve Scherf et al.
# Submitted via: CDex 1.51
#
DISCID=4209ed06
DTITLE=Return To Forever - Hymn of the Seventh Galaxy
DYEAR=1973
DGENRE=Jazz
TTITLE0=Hymn of the Seventh Galaxy
TTITLE1=After the Cosmic Rain
TTITLE2=Captain Señor Mouse
TTITLE3=Theme to the Mothership
TTITLE4=Space Circus, Pts. 1 and 2
TTITLE5=Game Maker
EXTD=YEAR: 1973
EXTT0=
EXTT1=
EXTT2=
EXTT3=
EXTT4=
EXTT5=
PLAYORDER=
